<svg width="24" height="24" viewBox="0 0 24 24" fill="none" xmlns="http://www.w3.org/2000/svg">
<path d="M16.8 7.2002H7.19995V16.8002H16.8V7.2002Z" fill="white"/>
<path fill-rule="evenodd" clip-rule="evenodd" d="M11.1 3.6002V2.1002C11.1 1.8615 11.1948 1.63258 11.3636 1.4638C11.5323 1.29502 11.7613 1.2002 12 1.2002C12.2386 1.2002 12.4676 1.29502 12.6363 1.4638C12.8051 1.63258 12.9 1.8615 12.9 2.1002V3.6002H14.7V2.1002C14.7 1.8615 14.7948 1.63258 14.9636 1.4638C15.1323 1.29502 15.3613 1.2002 15.6 1.2002C15.8386 1.2002 16.0676 1.29502 16.2363 1.4638C16.4051 1.63258 16.5 1.8615 16.5 2.1002V3.6002H17.1C17.9752 3.6002 18.8145 3.94787 19.4334 4.56674C20.0523 5.18561 20.4 6.02498 20.4 6.9002V7.5002H21.9C22.1386 7.5002 22.3676 7.59502 22.5363 7.7638C22.7051 7.93258 22.8 8.1615 22.8 8.4002C22.8 8.63889 22.7051 8.86781 22.5363 9.03659C22.3676 9.20537 22.1386 9.3002 21.9 9.3002H20.4V11.1002H21.9C22.1386 11.1002 22.3676 11.195 22.5363 11.3638C22.7051 11.5326 22.8 11.7615 22.8 12.0002C22.8 12.2389 22.7051 12.4678 22.5363 12.6366C22.3676 12.8054 22.1386 12.9002 21.9 12.9002H20.4V14.7002H21.9C22.1386 14.7002 22.3676 14.795 22.5363 14.9638C22.7051 15.1326 22.8 15.3615 22.8 15.6002C22.8 15.8389 22.7051 16.0678 22.5363 16.2366C22.3676 16.4054 22.1386 16.5002 21.9 16.5002H20.4V17.1002C20.4 17.9754 20.0523 18.8148 19.4334 19.4336C18.8145 20.0525 17.9752 20.4002 17.1 20.4002H16.5V21.9002C16.5 22.1389 16.4051 22.3678 16.2363 22.5366C16.0676 22.7054 15.8386 22.8002 15.6 22.8002C15.3613 22.8002 15.1323 22.7054 14.9636 22.5366C14.7948 22.3678 14.7 22.1389 14.7 21.9002V20.4002H12.9V21.9002C12.9 22.1389 12.8051 22.3678 12.6363 22.5366C12.4676 22.7054 12.2386 22.8002 12 22.8002C11.7613 22.8002 11.5323 22.7054 11.3636 22.5366C11.1948 22.3678 11.1 22.1389 11.1 21.9002V20.4002H9.29995V21.9002C9.29995 22.1389 9.20513 22.3678 9.03635 22.5366C8.86757 22.7054 8.63865 22.8002 8.39995 22.8002C8.16126 22.8002 7.93234 22.7054 7.76356 22.5366C7.59477 22.3678 7.49995 22.1389 7.49995 21.9002V20.4002H6.89995C6.02474 20.4002 5.18537 20.0525 4.5665 19.4336C3.94763 18.8148 3.59995 17.9754 3.59995 17.1002V16.5002H2.09995C1.86126 16.5002 1.63234 16.4054 1.46356 16.2366C1.29477 16.0678 1.19995 15.8389 1.19995 15.6002C1.19995 15.3615 1.29477 15.1326 1.46356 14.9638C1.63234 14.795 1.86126 14.7002 2.09995 14.7002H3.59995V12.9002H2.09995C1.86126 12.9002 1.63234 12.8054 1.46356 12.6366C1.29477 12.4678 1.19995 12.2389 1.19995 12.0002C1.19995 11.7615 1.29477 11.5326 1.46356 11.3638C1.63234 11.195 1.86126 11.1002 2.09995 11.1002H3.59995V9.3002H2.09995C1.86126 9.3002 1.63234 9.20537 1.46356 9.03659C1.29477 8.86781 1.19995 8.63889 1.19995 8.4002C1.19995 8.1615 1.29477 7.93258 1.46356 7.7638C1.63234 7.59502 1.86126 7.5002 2.09995 7.5002H3.59995V6.9002C3.59995 6.02498 3.94763 5.18561 4.5665 4.56674C5.18537 3.94787 6.02474 3.6002 6.89995 3.6002H7.49995V2.1002C7.49995 1.8615 7.59477 1.63258 7.76356 1.4638C7.93234 1.29502 8.16126 1.2002 8.39995 1.2002C8.63865 1.2002 8.86757 1.29502 9.03635 1.4638C9.20513 1.63258 9.29995 1.8615 9.29995 2.1002V3.6002H11.1ZM5.39995 6.9002C5.39995 6.0722 6.07195 5.4002 6.89995 5.4002H17.1C17.928 5.4002 18.6 6.0722 18.6 6.9002V17.1002C18.6 17.9282 17.928 18.6002 17.1 18.6002H6.89995C6.07195 18.6002 5.39995 17.9282 5.39995 17.1002V6.9002Z" fill="white"/>
</svg>
