<svg width="25" height="25" viewBox="0 0 25 25" fill="none" xmlns="http://www.w3.org/2000/svg">
<path d="M12.5 2.5C14.0101 2.50087 15.5005 2.84376 16.8592 3.50292C18.2178 4.16209 19.4096 5.12041 20.345 6.30598C21.2803 7.49155 21.9351 8.87358 22.26 10.3483C22.5849 11.8231 22.5716 13.3523 22.2211 14.8212C21.8706 16.2901 21.1919 17.6605 20.236 18.8296C19.2802 19.9988 18.0719 20.9362 16.702 21.5716C15.332 22.2071 13.836 22.524 12.326 22.4986C10.8161 22.4732 9.33155 22.1061 7.98375 21.425L7.8325 21.3438L3.27625 22.4813C3.18856 22.5033 3.09714 22.5061 3.00828 22.4893C2.91942 22.4726 2.83525 22.4368 2.76157 22.3844C2.68789 22.332 2.62646 22.2642 2.58152 22.1858C2.53658 22.1073 2.50919 22.0201 2.50125 21.93V21.8275L2.51875 21.7237L3.65625 17.1687L3.5775 17.0187C3.00548 15.8927 2.65336 14.6679 2.54 13.41L2.50875 12.9325L2.5 12.5C2.5 9.84784 3.55357 7.3043 5.42893 5.42893C7.3043 3.55357 9.84784 2.5 12.5 2.5ZM13.125 13.75H9.375L9.2625 13.76C9.1184 13.7861 8.98803 13.862 8.89416 13.9744C8.80028 14.0868 8.74886 14.2286 8.74886 14.375C8.74886 14.5214 8.80028 14.6632 8.89416 14.7756C8.98803 14.888 9.1184 14.9639 9.2625 14.99L9.375 15H13.125L13.2375 14.99C13.3816 14.9639 13.512 14.888 13.6058 14.7756C13.6997 14.6632 13.7511 14.5214 13.7511 14.375C13.7511 14.2286 13.6997 14.0868 13.6058 13.9744C13.512 13.862 13.3816 13.7861 13.2375 13.76L13.125 13.75ZM15.625 10H9.375L9.2625 10.01C9.1184 10.0361 8.98803 10.112 8.89416 10.2244C8.80028 10.3368 8.74886 10.4786 8.74886 10.625C8.74886 10.7714 8.80028 10.9132 8.89416 11.0256C8.98803 11.138 9.1184 11.2139 9.2625 11.24L9.375 11.25H15.625L15.7375 11.24C15.8816 11.2139 16.012 11.138 16.1058 11.0256C16.1997 10.9132 16.2511 10.7714 16.2511 10.625C16.2511 10.4786 16.1997 10.3368 16.1058 10.2244C16.012 10.112 15.8816 10.0361 15.7375 10.01L15.625 10Z" fill="white"/>
</svg>
