<svg width="24" height="12" viewBox="0 0 24 12" fill="none" xmlns="http://www.w3.org/2000/svg">
<path d="M6.99989 5V4C6.99989 3.73478 6.89454 3.48043 6.707 3.29289C6.51946 3.10536 6.26511 3 5.99989 3C5.73468 3 5.48032 3.10536 5.29279 3.29289C5.10525 3.48043 4.99989 3.73478 4.99989 4V5H3.99989C3.73468 5 3.48032 5.10536 3.29279 5.29289C3.10525 5.48043 2.99989 5.73478 2.99989 6C2.99989 6.26522 3.10525 6.51957 3.29279 6.70711C3.48032 6.89464 3.73468 7 3.99989 7H4.99989V8C4.99989 8.26522 5.10525 8.51957 5.29279 8.70711C5.48032 8.89464 5.73468 9 5.99989 9C6.26511 9 6.51946 8.89464 6.707 8.70711C6.89454 8.51957 6.99989 8.26522 6.99989 8V7H7.99989C8.26511 7 8.51946 6.89464 8.707 6.70711C8.89454 6.51957 8.99989 6.26522 8.99989 6C8.99989 5.73478 8.89454 5.48043 8.707 5.29289C8.51946 5.10536 8.26511 5 7.99989 5H6.99989ZM5.99989 1.54065e-09H17.9999C19.0007 -2.26765e-05 19.9857 0.250318 20.8651 0.728226C21.7444 1.20613 22.4903 1.89643 23.0347 2.73625C23.5791 3.57607 23.9048 4.53873 23.9821 5.53659C24.0594 6.53444 23.8859 7.53578 23.4773 8.44943C23.0687 9.36307 22.4381 10.16 21.6428 10.7676C20.8475 11.3753 19.9129 11.7743 18.924 11.9284C17.935 12.0826 16.9233 11.9868 15.9808 11.65C15.0384 11.3132 14.1951 10.746 13.5279 10H10.4719C9.80466 10.746 8.96142 11.3132 8.01896 11.65C7.07649 11.9868 6.06474 12.0826 5.07583 11.9284C4.08693 11.7743 3.15228 11.3753 2.35701 10.7676C1.56173 10.16 0.931086 9.36307 0.522504 8.44943C0.113921 7.53578 -0.0596206 6.53444 0.01768 5.53659C0.0949807 4.53873 0.420668 3.57607 0.965086 2.73625C1.5095 1.89643 2.25536 1.20613 3.13473 0.728226C4.0141 0.250318 4.99905 -2.26765e-05 5.99989 1.54065e-09V1.54065e-09ZM17.9999 5C18.2651 5 18.5195 4.89464 18.707 4.70711C18.8945 4.51957 18.9999 4.26522 18.9999 4C18.9999 3.73478 18.8945 3.48043 18.707 3.29289C18.5195 3.10536 18.2651 3 17.9999 3C17.7347 3 17.4803 3.10536 17.2928 3.29289C17.1052 3.48043 16.9999 3.73478 16.9999 4C16.9999 4.26522 17.1052 4.51957 17.2928 4.70711C17.4803 4.89464 17.7347 5 17.9999 5ZM15.9999 7C16.2651 7 16.5195 6.89464 16.707 6.70711C16.8945 6.51957 16.9999 6.26522 16.9999 6C16.9999 5.73478 16.8945 5.48043 16.707 5.29289C16.5195 5.10536 16.2651 5 15.9999 5C15.7347 5 15.4803 5.10536 15.2928 5.29289C15.1053 5.48043 14.9999 5.73478 14.9999 6C14.9999 6.26522 15.1053 6.51957 15.2928 6.70711C15.4803 6.89464 15.7347 7 15.9999 7ZM19.9999 7C20.2651 7 20.5195 6.89464 20.707 6.70711C20.8945 6.51957 20.9999 6.26522 20.9999 6C20.9999 5.73478 20.8945 5.48043 20.707 5.29289C20.5195 5.10536 20.2651 5 19.9999 5C19.7347 5 19.4803 5.10536 19.2928 5.29289C19.1052 5.48043 18.9999 5.73478 18.9999 6C18.9999 6.26522 19.1052 6.51957 19.2928 6.70711C19.4803 6.89464 19.7347 7 19.9999 7ZM17.9999 9C18.2651 9 18.5195 8.89464 18.707 8.70711C18.8945 8.51957 18.9999 8.26522 18.9999 8C18.9999 7.73478 18.8945 7.48043 18.707 7.29289C18.5195 7.10536 18.2651 7 17.9999 7C17.7347 7 17.4803 7.10536 17.2928 7.29289C17.1052 7.48043 16.9999 7.73478 16.9999 8C16.9999 8.26522 17.1052 8.51957 17.2928 8.70711C17.4803 8.89464 17.7347 9 17.9999 9Z" fill="white"/>
</svg>
