<svg width="20" height="20" viewBox="0 0 20 20" fill="none" xmlns="http://www.w3.org/2000/svg">
<path d="M1.72994 4.55978C1.50364 4.74579 1.32096 4.97923 1.19482 5.24362C1.06868 5.508 1.00215 5.79686 0.999941 6.08979V6.22978C1.00253 8.91655 1.71865 11.5544 3.07505 13.8737C4.43146 16.1929 6.37949 18.1103 8.71994 19.4298L9.01994 19.5998C9.32398 19.7753 9.66887 19.8677 10.0199 19.8677C10.371 19.8677 10.7159 19.7753 11.0199 19.5998L11.3199 19.4298C12.41 18.8001 13.4177 18.0376 14.3199 17.1598L1.72994 4.55978ZM16.8399 13.9998C18.252 11.6539 18.9987 8.96785 18.9999 6.22978V6.08979C19.0031 5.73567 18.9122 5.38707 18.7365 5.0796C18.5608 4.77214 18.3066 4.51683 17.9999 4.33979L10.9999 0.399785C10.6959 0.224249 10.351 0.131836 9.99994 0.131836C9.64887 0.131836 9.30398 0.224249 8.99994 0.399785L5.31994 2.48978L16.8399 13.9998ZM2.70994 1.28979C2.6167 1.19655 2.50601 1.12259 2.38419 1.07213C2.26237 1.02167 2.1318 0.995693 1.99994 0.995693C1.86808 0.995693 1.73751 1.02167 1.61569 1.07213C1.49387 1.12259 1.38318 1.19655 1.28994 1.28979C1.10164 1.47809 0.99585 1.73348 0.99585 1.99979C0.99585 2.26609 1.10164 2.52148 1.28994 2.70979L17.2899 18.7098C17.3829 18.8035 17.4935 18.8779 17.6154 18.9287C17.7372 18.9794 17.8679 19.0056 17.9999 19.0056C18.132 19.0056 18.2627 18.9794 18.3845 18.9287C18.5064 18.8779 18.617 18.8035 18.7099 18.7098C18.8037 18.6168 18.8781 18.5062 18.9288 18.3844C18.9796 18.2625 19.0057 18.1318 19.0057 17.9998C19.0057 17.8678 18.9796 17.7371 18.9288 17.6152C18.8781 17.4933 18.8037 17.3827 18.7099 17.2898L2.70994 1.28979Z" fill="white"/>
</svg>
