<svg width="20" height="20" viewBox="0 0 20 20" fill="none" xmlns="http://www.w3.org/2000/svg">
<path d="M19.4667 13.7H18V10.1H19.4667C19.6081 10.1 19.7438 10.0438 19.8438 9.94379C19.9438 9.84377 20 9.70812 20 9.56667C20 9.42522 19.9438 9.28956 19.8438 9.18954C19.7438 9.08952 19.6081 9.03333 19.4667 9.03333H18V7C16.7688 7.00066 15.581 6.54457 14.6667 5.72V13.8733C14.6705 14.0639 14.605 14.2494 14.4824 14.3953C14.3598 14.5412 14.1884 14.6376 14 14.6667H6.66667V13.3333H13.3333V5.33333H14.28C13.4554 4.41897 12.9993 3.23125 13 2H10.9V0.533333C10.9 0.391885 10.8438 0.256229 10.7438 0.15621C10.6438 0.0561904 10.5081 0 10.3667 0C10.2252 0 10.0896 0.0561904 9.98954 0.15621C9.88952 0.256229 9.83333 0.391885 9.83333 0.533333V2H6.23333V0.533333C6.23333 0.391885 6.17714 0.256229 6.07712 0.15621C5.9771 0.0561904 5.84145 0 5.7 0C5.55855 0 5.4229 0.0561904 5.32288 0.15621C5.22286 0.256229 5.16667 0.391885 5.16667 0.533333V2H3.4C3.0287 2 2.6726 2.1475 2.41005 2.41005C2.1475 2.6726 2 3.0287 2 3.4V4.36667H0.533333C0.391885 4.36667 0.256229 4.42286 0.15621 4.52288C0.0561904 4.6229 0 4.75855 0 4.9C0 5.04145 0.0561904 5.1771 0.15621 5.27712C0.256229 5.37714 0.391885 5.43333 0.533333 5.43333H2V9.03333H0.533333C0.391885 9.03333 0.256229 9.08952 0.15621 9.18954C0.0561904 9.28956 0 9.42522 0 9.56667C0 9.70812 0.0561904 9.84377 0.15621 9.94379C0.256229 10.0438 0.391885 10.1 0.533333 10.1H2V13.7H0.533333C0.391885 13.7 0.256229 13.7562 0.15621 13.8562C0.0561904 13.9562 0 14.0919 0 14.2333C0 14.3748 0.0561904 14.5104 0.15621 14.6105C0.256229 14.7105 0.391885 14.7667 0.533333 14.7667H2V16.6C2 16.9713 2.1475 17.3274 2.41005 17.59C2.6726 17.8525 3.0287 18 3.4 18H5.16667V19.4667C5.16667 19.6081 5.22286 19.7438 5.32288 19.8438C5.4229 19.9438 5.55855 20 5.7 20C5.84145 20 5.9771 19.9438 6.07712 19.8438C6.17714 19.7438 6.23333 19.6081 6.23333 19.4667V18H9.83333V19.4667C9.83333 19.6081 9.88952 19.7438 9.98954 19.8438C10.0896 19.9438 10.2252 20 10.3667 20C10.5081 20 10.6438 19.9438 10.7438 19.8438C10.8438 19.7438 10.9 19.6081 10.9 19.4667V18H14.5V19.4667C14.5 19.6081 14.5562 19.7438 14.6562 19.8438C14.7562 19.9438 14.8919 20 15.0333 20C15.1748 20 15.3104 19.9438 15.4105 19.8438C15.5105 19.7438 15.5667 19.6081 15.5667 19.4667V18H16.6C16.9713 18 17.3274 17.8525 17.59 17.59C17.8525 17.3274 18 16.9713 18 16.6V14.7667H19.4667C19.6081 14.7667 19.7438 14.7105 19.8438 14.6105C19.9438 14.5104 20 14.3748 20 14.2333C20 14.0919 19.9438 13.9562 19.8438 13.8562C19.7438 13.7562 19.6081 13.7 19.4667 13.7Z" fill="white"/>
</svg>
