<svg width="132" height="132" viewBox="0 0 132 132" fill="none" xmlns="http://www.w3.org/2000/svg">
<path d="M52.6955 3.43494C53.1522 2.98008 53.6948 2.61921 54.2921 2.37298C54.8894 2.12675 55.5298 2 56.1765 2C56.8232 2 57.4636 2.12675 58.0609 2.37298C58.6582 2.61921 59.2008 2.98008 59.6575 3.43494C71.8508 15.587 85.3618 21.5459 100.417 21.5459C101.721 21.5459 102.971 22.0604 103.893 22.9764C104.815 23.8924 105.333 25.1347 105.333 26.4301V37.1755C102.19 35.5781 98.8968 34.2922 95.5 33.3365V31.1288C80.9467 30.0347 67.8192 24.0368 56.1667 13.6235C44.5043 24.0368 31.3867 30.0347 16.8333 31.1288V55.7456C16.8333 69.7244 20.3832 80.7531 26.8338 89.3494C27.355 95.7967 29.0168 101.931 31.6227 107.538C15.2993 95.6892 7 78.3012 7 55.7553V26.4301C7 25.1347 7.51801 23.8924 8.44006 22.9764C9.36211 22.0604 10.6127 21.5459 11.9167 21.5459C26.9617 21.5459 40.4727 15.5773 52.6955 3.43494ZM125 85.0415C125 90.8142 123.855 96.5304 121.632 101.864C119.408 107.197 116.148 112.043 112.039 116.125C107.93 120.207 103.052 123.445 97.6837 125.654C92.3151 127.863 86.561 129 80.75 129C74.939 129 69.1849 127.863 63.8163 125.654C58.4476 123.445 53.5695 120.207 49.4605 116.125C45.3515 112.043 42.0921 107.197 39.8683 101.864C37.6446 96.5304 36.5 90.8142 36.5 85.0415C36.5 73.383 41.162 62.2019 49.4605 53.9581C57.759 45.7143 69.0142 41.083 80.75 41.083C92.4858 41.083 103.741 45.7143 112.039 53.9581C120.338 62.2019 125 73.383 125 85.0415ZM85.6667 65.5044C85.6667 64.209 85.1487 62.9666 84.2266 62.0507C83.3046 61.1347 82.054 60.6201 80.75 60.6201C79.446 60.6201 78.1954 61.1347 77.2734 62.0507C76.3513 62.9666 75.8333 64.209 75.8333 65.5044V80.1572H61.0833C59.7794 80.1572 58.5288 80.6718 57.6067 81.5878C56.6847 82.5038 56.1667 83.7461 56.1667 85.0415C56.1667 86.3369 56.6847 87.5792 57.6067 88.4952C58.5288 89.4112 59.7794 89.9258 61.0833 89.9258H75.8333V104.579C75.8333 105.874 76.3513 107.116 77.2734 108.032C78.1954 108.948 79.446 109.463 80.75 109.463C82.054 109.463 83.3046 108.948 84.2266 108.032C85.1487 107.116 85.6667 105.874 85.6667 104.579V89.9258H100.417C101.721 89.9258 102.971 89.4112 103.893 88.4952C104.815 87.5792 105.333 86.3369 105.333 85.0415C105.333 83.7461 104.815 82.5038 103.893 81.5878C102.971 80.6718 101.721 80.1572 100.417 80.1572H85.6667V65.5044Z" fill="#FFCB11"/>
</svg>
