<svg width="132" height="132" viewBox="0 0 132 132" fill="none" xmlns="http://www.w3.org/2000/svg">
<path fill-rule="evenodd" clip-rule="evenodd" d="M119.625 66C119.625 80.2222 113.975 93.862 103.919 103.919C93.862 113.975 80.2222 119.625 66 119.625C51.7778 119.625 38.138 113.975 28.0814 103.919C18.0248 93.862 12.375 80.2222 12.375 66C12.375 51.7778 18.0248 38.138 28.0814 28.0814C38.138 18.0248 51.7778 12.375 66 12.375C80.2222 12.375 93.862 18.0248 103.919 28.0814C113.975 38.138 119.625 51.7778 119.625 66ZM132 66C132 83.5043 125.046 100.292 112.669 112.669C100.292 125.046 83.5043 132 66 132C48.4957 132 31.7084 125.046 19.331 112.669C6.95355 100.292 0 83.5043 0 66C0 48.4957 6.95355 31.7084 19.331 19.331C31.7084 6.95355 48.4957 0 66 0C83.5043 0 100.292 6.95355 112.669 19.331C125.046 31.7084 132 48.4957 132 66ZM51.5625 86.625C49.9215 86.625 48.3477 87.2769 47.1873 88.4373C46.0269 89.5977 45.375 91.1715 45.375 92.8125C45.375 94.4535 46.0269 96.0273 47.1873 97.1877C48.3477 98.3481 49.9215 99 51.5625 99H80.4375C82.0785 99 83.6523 98.3481 84.8127 97.1877C85.9731 96.0273 86.625 94.4535 86.625 92.8125C86.625 91.1715 85.9731 89.5977 84.8127 88.4373C83.6523 87.2769 82.0785 86.625 80.4375 86.625H72.1875V57.75H57.75C56.109 57.75 54.5352 58.4019 53.3748 59.5623C52.2144 60.7227 51.5625 62.2965 51.5625 63.9375C51.5625 65.5785 52.2144 67.1523 53.3748 68.3127C54.5352 69.4731 56.109 70.125 57.75 70.125H59.8125V86.625H51.5625ZM66 49.5C68.188 49.5 70.2865 48.6308 71.8336 47.0836C73.3808 45.5365 74.25 43.438 74.25 41.25C74.25 39.062 73.3808 36.9635 71.8336 35.4164C70.2865 33.8692 68.188 33 66 33C63.812 33 61.7135 33.8692 60.1664 35.4164C58.6192 36.9635 57.75 39.062 57.75 41.25C57.75 43.438 58.6192 45.5365 60.1664 47.0836C61.7135 48.6308 63.812 49.5 66 49.5Z" fill="#FFC700"/>
</svg>
