<svg width="132" height="132" viewBox="0 0 132 132" fill="none" xmlns="http://www.w3.org/2000/svg">
<path d="M24.2434 14.8974C50.1651 -6.34803 88.4734 -4.86963 112.673 19.3327C138.442 45.1058 138.442 86.8971 112.673 112.67C86.9028 138.443 45.1167 138.443 19.3468 112.67C11.4386 104.772 5.66722 94.9926 2.57474 84.2513C-0.517749 73.5099 -0.829894 62.1587 1.66761 51.2636L2.17575 49.1978L14.9386 52.5638C11.7746 64.5907 12.9568 77.3487 18.277 88.5893C23.5971 99.8298 32.7137 108.831 44.0201 114.008C55.3265 119.184 68.097 120.203 80.0809 116.885C92.0648 113.567 102.493 106.124 109.528 95.8693C116.562 85.6144 119.752 73.2052 118.534 60.8287C117.317 48.4522 111.77 36.9027 102.872 28.2157C93.9738 19.5286 82.2953 14.2616 69.8945 13.3429C57.4938 12.4242 45.1668 15.9127 35.0859 23.1937L33.6275 24.2893L40.3389 31.0015L10.009 37.9975L17.0041 7.66382L24.2368 14.8974H24.2434ZM72.6089 26.4013V39.6013H89.1069V52.8014H52.8114C51.9868 52.7999 51.1916 53.1072 50.5823 53.6627C49.9729 54.2183 49.5937 54.9819 49.5192 55.8032C49.4447 56.6245 49.6803 57.4439 50.1797 58.1001C50.6791 58.7563 51.4061 59.2017 52.2174 59.3486L52.8114 59.4014H79.2081C83.5836 59.4014 87.78 61.1398 90.8739 64.2342C93.9679 67.3285 95.7061 71.5254 95.7061 75.9015C95.7061 80.2775 93.9679 84.4744 90.8739 87.5688C87.78 90.6631 83.5836 92.4015 79.2081 92.4015H72.6089V105.602H59.4105V92.4015H42.9126V79.2015H79.2081C80.0327 79.203 80.8279 78.8957 81.4372 78.3401C82.0465 77.7845 82.4258 77.0209 82.5003 76.1996C82.5748 75.3784 82.3391 74.559 81.8397 73.9028C81.3403 73.2466 80.6134 72.8012 79.802 72.6543L79.2081 72.6015H52.8114C48.4358 72.6015 44.2395 70.8631 41.1455 67.7687C38.0515 64.6743 36.3134 60.4775 36.3134 56.1014C36.3134 51.7253 38.0515 47.5285 41.1455 44.4341C44.2395 41.3397 48.4358 39.6013 52.8114 39.6013H59.4105V26.4013H72.6089Z" fill="#FFC700"/>
</svg>
