<svg width="132" height="132" viewBox="0 0 132 132" fill="none" xmlns="http://www.w3.org/2000/svg">
<path d="M115.553 101.193C123.421 94.1807 127.876 84.8337 127.876 75.134C127.876 64.8257 123.051 55.185 114.288 47.9864C105.759 40.9826 94.4707 37.125 82.5 37.125C70.5293 37.125 59.2407 40.9826 50.7135 47.9869C41.9507 55.185 37.125 64.8257 37.125 75.134C37.125 85.4424 41.9507 95.0831 50.7135 102.282C59.2407 109.286 70.5293 113.143 82.5 113.143C84.0951 113.143 85.7 113.073 87.2914 112.933L90.0103 115.29C99.3771 123.406 111.356 127.875 123.75 127.875H127.875V119.095L126.667 117.887C121.901 113.107 118.124 107.434 115.553 101.193ZM95.4136 109.055L89.958 104.326L88.1389 104.549C86.268 104.778 84.3849 104.893 82.5 104.893C62.0297 104.893 45.375 91.543 45.375 75.134C45.375 58.725 62.0297 45.375 82.5 45.375C102.97 45.375 119.625 58.7248 119.625 75.134C119.625 83.3093 115.546 90.9416 108.14 96.6248L105.765 98.4478L106.861 101.551C109.107 107.887 112.41 113.799 116.627 119.035C108.772 117.723 101.432 114.27 95.4136 109.055Z" fill="#FFCB11"/>
<path d="M15.5164 81.8493C19.3778 76.9615 22.4095 71.4723 24.4904 65.6012L25.5784 62.5139L23.2047 60.6922C16.221 55.3333 12.375 48.1408 12.375 40.4397C12.375 24.9648 28.1039 12.375 47.4375 12.375C61.6605 12.375 73.9321 19.189 79.4261 28.9523C80.4463 28.9028 81.4708 28.875 82.5 28.875C84.5671 28.875 86.6154 28.9753 88.6447 29.1759C86.5216 23.6754 82.8344 18.6543 77.765 14.4906C69.6279 7.8063 58.8586 4.125 47.4375 4.125C36.0164 4.125 25.2471 7.8063 17.1095 14.4906C8.73623 21.3688 4.125 30.5843 4.125 40.4397C4.125 49.6694 8.34075 58.5626 15.791 65.2523C13.3597 71.1034 9.80707 76.4222 5.33337 80.909L4.125 82.1171V90.75H8.25C15.8779 90.7491 23.4009 88.9727 30.2236 85.5615C29.4755 82.7259 29.0371 79.8176 28.9163 76.8874C24.7752 79.3144 20.2395 80.994 15.5164 81.8493Z" fill="#FFCB11"/>
</svg>
