<svg width="104" height="118" viewBox="0 0 104 118" fill="none" xmlns="http://www.w3.org/2000/svg">
<path d="M58.3086 110.584L67.4936 104.159C79.2363 95.939 88.3255 84.4709 93.6469 71.161C98.9683 57.8511 100.291 43.2778 97.4521 29.2275C97.3119 28.5351 97.0143 27.8843 96.5822 27.3254C96.1502 26.7665 95.5953 26.3145 94.9606 26.0045L52.0001 5L9.04506 26.0045C8.40929 26.3139 7.85333 26.7656 7.4203 27.3245C6.98727 27.8834 6.68881 28.5346 6.54806 29.2275C3.70996 43.2784 5.03321 57.852 10.3556 71.162C15.678 84.4719 24.7683 95.9397 36.5121 104.159L45.6971 110.584C47.5455 111.877 49.7469 112.57 52.0028 112.57C54.2587 112.57 56.4601 111.877 58.3086 110.584V110.584Z" stroke="#FFC700" stroke-width="10" stroke-linecap="round" stroke-linejoin="round"/>
</svg>
