<svg width="132" height="132" viewBox="0 0 132 132" fill="none" xmlns="http://www.w3.org/2000/svg">
<path d="M115.5 67.21C115.5 37.015 92.07 16.5 66 16.5C40.205 16.5 16.5 36.575 16.5 67.54C13.2 69.41 11 72.93 11 77V88C11 94.05 15.95 99 22 99H27.5V65.45C27.5 44.165 44.715 26.95 66 26.95C87.285 26.95 104.5 44.165 104.5 65.45V104.5H60.5V115.5H104.5C110.55 115.5 115.5 110.55 115.5 104.5V97.79C118.745 96.085 121 92.73 121 88.77V76.12C121 72.27 118.745 68.915 115.5 67.21Z" fill="#FFC700"/>
<path d="M49.5 77C52.5376 77 55 74.5376 55 71.5C55 68.4624 52.5376 66 49.5 66C46.4624 66 44 68.4624 44 71.5C44 74.5376 46.4624 77 49.5 77Z" fill="#FFC700"/>
<path d="M82.5 77C85.5376 77 88 74.5376 88 71.5C88 68.4624 85.5376 66 82.5 66C79.4624 66 77 68.4624 77 71.5C77 74.5376 79.4624 77 82.5 77Z" fill="#FFC700"/>
<path d="M99.0001 60.665C97.6886 52.9327 93.6838 45.9138 87.6945 40.8506C81.7053 35.7874 74.1178 33.0064 66.2751 33C49.6101 33 31.6801 46.805 33.1101 68.475C39.8923 65.6996 45.8824 61.2892 50.5463 55.6368C55.2103 49.9844 58.4031 43.2658 59.8401 36.08C67.0451 50.545 81.8401 60.5 99.0001 60.665Z" fill="#FFC700"/>
</svg>
